<svg width="100" height="100" viewBox="0 0 100 100" fill="none" xmlns="http://www.w3.org/2000/svg">
<path d="M64.1 53.8L59.3 50.2L56.5 48.1L55.1 47L53 48.7L52.2 49.3L52.7 45.7L53.7 42.2V42.1L49.7 41C48.9 40.8 48.1 40.8 47.3 41L41.1 42.4L30.7 35L21.6 49.1L34.7 56.2L37.4 60.2C38.1 61.3 39.1 62.2 40.2 62.9L48.7 68.9C57.1 66.9 64.6 60.6 64.9 54.4C64.6 54.1 64.2 53.9 64.1 53.8Z" fill="#EBB886"/>
<path d="M70.7 58.9C70.6 58.8 70.5 58.7 70.4 58.6L69.2 57.5L65.8 55C65.7 54.9 65.3 54.6 65 54.4C64.6 55.9 63.6 57.1 61.5 57.6C61.3 59.4 59.8 60.6 57.4 61.3C57 63.1 55.6 64.3 53.3 65C52.6 67.2 50.5 68.8 48.9 69L52.8 71.8C56.5 74.4 58.5 70.8 57.4 69.6L57.8 69.9C61.4 72.6 63.8 68.7 61.9 66.4C64.7 69.1 68.4 65.5 66.3 62.6C66.4 62.7 66.5 62.8 66.7 62.9L66.8 63C69.9 64.9 72.7 61 70.7 58.9Z" fill="#E0B080"/>
<path d="M42.2 59.4C43.4 58.7 43.9 57.2 43.2 56L43 55.6C42.7 55 42.1 54.6 41.5 54.4C40.9 54.2 40.2 54.3 39.6 54.6L35.1 57C33.9 57.6 33.5 59 34.1 60.2L34.5 61C35.1 62.1 36.4 62.5 37.5 61.9L42.2 59.4Z" fill="#FFCF9F"/>
<path d="M46.8 63.2C47.4 62.9 47.9 62.4 48.1 61.7C48.3 61.1 48.2 60.4 47.9 59.8L47.7 59.4C47.1 58.2 45.5 57.7 44.3 58.3L38.6 61.2C38 61.5 37.6 62 37.4 62.6C37.2 63.2 37.3 63.9 37.6 64.4L38 65.2C38.6 66.3 39.9 66.7 41 66.1L46.8 63.2Z" fill="#FFCF9F"/>
<path d="M50.4 67.5C51.7 66.8 52.1 65.3 51.5 64L51.3 63.6C51 63 50.4 62.5 49.8 62.3C49.1 62.1 48.4 62.2 47.8 62.5L43.2 65C42 65.6 41.6 67.1 42.2 68.2L42.7 69.1C43 69.6 43.5 70 44 70.2C44.6 70.4 45.2 70.3 45.7 70L50.4 67.5Z" fill="#FFCF9F"/>
<path d="M54.1999 70.6C55.1999 70.1 55.5 68.8 54.9 67.8L54.6999 67.5C54.0999 66.5 52.8999 66 51.9999 66.5L48.4999 68.4C47.5999 68.9 47.2999 70.1 47.7999 71L48.2 71.7C48.7 72.6 49.6999 73 50.5999 72.5L54.1999 70.6Z" fill="#FFCF9F"/>
<path d="M74.4 35.8L65.7 41.7C65.7 41.7 59 40.6 58.3 40.8L53.7 42.2L50.7 43.1C50.1 43.3 49.6 43.8 49.3 44.4L46.5 52.1C46.1 53.1 46.6 54.1 47.6 54.5L48.2 54.7C49.2 55.1 50.3 55 51.2 54.6C52.2 54.2 52.9 53.4 53.3 52.4L54.3 49.5C54.5 49 54.8 48.7 55.3 48.5L56.3 48.2H56.4C56.4 48.2 70.5 58.9 70.6 59L73.7 55.7L82.4 50.3L74.4 35.8Z" fill="#FFCF9F"/>
<path d="M31 57.6L25 53.8L34.9 36.8L41.1 41.4L31 57.6Z" fill="#EDEDED"/>
<path d="M11.3 19.1V47.7C17.7 51.7 24 55.6 24 55.6L34.9 36.7C34.9 36.8 22.1 27.2 11.3 19.1Z" fill="#575756"/>
<path d="M75.8 56.6L81.8 52.9L72 35.8L65.7 40.4L75.8 56.6Z" fill="#EDEDED"/>
<path d="M95.5 18.2V46.8C89.1 50.8 82.8 54.7 82.8 54.7L72 35.8C72 35.8 84.7 26.2 95.5 18.2Z" fill="#005B6B"/>
<path d="M23.1 49.7C23.1 50.5 22.5001 51.1 21.7001 51.1C20.9001 51.1 20.3 50.5 20.3 49.7C20.3 48.9 20.9001 48.3 21.7001 48.3C22.5001 48.3 23.1 48.9 23.1 49.7Z" fill="white"/>
<path d="M19.1 47C19.1 47.8 18.5001 48.4 17.7001 48.4C16.9001 48.4 16.3 47.8 16.3 47C16.3 46.2 16.9001 45.6 17.7001 45.6C18.5001 45.6 19.1 46.2 19.1 47Z" fill="white"/>
<path d="M82.9 49.7C82.9 50.5 83.5 51.1 84.3 51.1C85.1 51.1 85.7 50.5 85.7 49.7C85.7 48.9 85.1 48.3 84.3 48.3C83.5 48.3 82.9 48.9 82.9 49.7Z" fill="white"/>
<path d="M86.9 47C86.9 47.8 87.5 48.4 88.3 48.4C89.1 48.4 89.7 47.8 89.7 47C89.7 46.2 89.1 45.6 88.3 45.6C87.5 45.6 86.9 46.2 86.9 47Z" fill="white"/>
<path d="M52.8999 36.5C52.4999 36.5 52.0999 36.2 52.0999 35.7V30.3C52.0999 29.9 52.3999 29.5 52.8999 29.5C53.2999 29.5 53.6999 29.8 53.6999 30.3V35.7C53.6999 36.2 53.3999 36.5 52.8999 36.5Z" fill="#9D9D9C"/>
<path d="M52.8999 82.8C52.4999 82.8 52.0999 82.5 52.0999 82V76.6C52.0999 76.2 52.3999 75.8 52.8999 75.8C53.2999 75.8 53.6999 76.1 53.6999 76.6V82C53.6999 82.4 53.3999 82.8 52.8999 82.8Z" fill="#9D9D9C"/>
<path d="M71.2 75.2C71 75.2 70.8 75.1 70.7 75L66.9 71.2C66.6 70.9 66.6 70.4 66.9 70.1C67.2 69.8 67.7 69.8 68 70.1L71.8 73.9C72.1 74.2 72.1 74.7 71.8 75C71.6 75.1 71.4 75.2 71.2 75.2Z" fill="#9D9D9C"/>
<path d="M34.7 75.2C34.5 75.2 34.3 75.1 34.2 75C33.9 74.7 33.9 74.2 34.2 73.9L38 70.1C38.3 69.8 38.8 69.8 39.1 70.1C39.4 70.4 39.4 70.9 39.1 71.2L35.2 75C35.1 75.1 34.9 75.2 34.7 75.2Z" fill="#9D9D9C"/>
<path d="M62.5999 80.9C62.2999 80.9 61.9999 80.7 61.8999 80.4L59.8999 75.4C59.6999 75 59.8999 74.6 60.2999 74.4C60.6999 74.2 61.0999 74.4 61.2999 74.8L63.2999 79.8C63.4999 80.2 63.2999 80.6 62.8999 80.8C62.7999 80.9 62.6999 80.9 62.5999 80.9Z" fill="#9D9D9C"/>
<path d="M45.2999 38C44.9999 38 44.6999 37.8 44.5999 37.5L42.5999 32.5C42.3999 32.1 42.5999 31.7 42.9999 31.5C43.3999 31.3 43.7999 31.5 43.9999 31.9L45.9999 36.9C46.1999 37.3 45.9999 37.7 45.5999 37.9C45.4999 38 45.3999 38 45.2999 38Z" fill="#9D9D9C"/>
<path d="M29 66.6C28.7 66.6 28.4 66.4 28.3 66.1C28.1 65.7 28.3 65.3 28.7 65.1L33.7 63.1C34.1 62.9 34.5 63.1 34.7 63.5C34.9 63.9 34.7 64.3 34.3 64.5L29.3 66.5C29.2 66.6 29.1 66.6 29 66.6Z" fill="#9D9D9C"/>
<path d="M76.7 67.1C76.6 67.1 76.5 67.1 76.4 67L71.4 64.9C71 64.7 70.8 64.3 71 63.9C71.2 63.5 71.6 63.3 72 63.5L77 65.6C77.4 65.8 77.6 66.2 77.4 66.6C77.3 66.9 77 67.1 76.7 67.1Z" fill="#9D9D9C"/>
<path d="M42.7999 80.7C42.6999 80.7 42.5999 80.7 42.4999 80.6C42.0999 80.4 41.8999 80 42.0999 79.6L44.1999 74.6C44.3999 74.2 44.7999 74 45.1999 74.2C45.5999 74.4 45.7999 74.8 45.5999 75.2L43.4999 80.2C43.3999 80.6 43.0999 80.7 42.7999 80.7Z" fill="#9D9D9C"/>
<path d="M60.9 38.2C60.8 38.2 60.7 38.2 60.6 38.1C60.2 37.9 60 37.5 60.2 37.1L62.3 32.1C62.5 31.7 62.9 31.5 63.3 31.7C63.7 31.9 63.9 32.3 63.7 32.7L61.6 37.7C61.5 38 61.2 38.2 60.9 38.2Z" fill="#9D9D9C"/>
</svg>
