<svg width="100" height="100" viewBox="0 0 100 100" fill="none" xmlns="http://www.w3.org/2000/svg">
<path d="M97.0261 100V37.2754H81.2268V100H97.0261Z" fill="#FFBB00"/>
<path d="M76.7658 100V57.9341H60.9666V100H76.7658Z" fill="#FFBB00"/>
<path d="M56.5056 100V70.2095H40.7064V100H56.5056Z" fill="#FFBB00"/>
<path d="M36.2453 100V80.5389H20.446V100H36.2453Z" fill="#FFBB00"/>
<path d="M33.6432 50.1497C28.4387 53.1437 21.3755 52.2455 17.6581 48.0539C13.9406 43.8623 15.0558 38.1736 20.2603 35.1796C25.4647 32.1856 32.5279 33.0838 36.2454 37.2754C39.777 41.3173 38.6618 47.1557 33.6432 50.1497ZM43.8662 43.1138L48.5131 40.7186L47.2119 36.5269L41.6357 36.0778L39.2194 33.3832L40.3347 29.0419L35.8736 26.7964L31.5986 29.6407L27.5093 29.0419L24.5354 25.2994L19.3309 26.3473L18.7733 30.8383L15.4276 32.7844L10.0372 31.8862L7.24912 35.479L10.7807 38.9221L10.0372 42.2156L5.39038 44.6108L6.69152 48.8024L12.2677 49.2515L14.6841 51.9461L13.5688 56.2874L18.0298 58.5329L22.3049 55.6886L26.3941 56.2874L29.3681 60.0299L34.5726 58.982L35.1302 54.491L38.4759 52.5449L43.8662 53.4431L46.6544 49.8503L43.1228 46.4072L43.8662 43.1138Z" fill="#FFBB00"/>
<path d="M21.7473 36.976C17.844 39.2216 17.1005 43.5629 19.8886 46.7066C22.6767 49.8503 28.067 50.4491 31.9704 48.2036C35.8737 45.9581 36.6172 41.6168 33.8291 38.4731C31.041 35.479 25.6507 34.7305 21.7473 36.976Z" fill="#005B6B"/>
<path d="M86.6171 16.7665C68.2156 47.006 38.29 68.1138 0 77.994V82.7844C40.5205 72.6048 72.3048 50.5988 91.6357 18.8623L86.6171 16.7665Z" fill="#CF4518"/>
<path d="M94.052 24.7006L100 0L79.368 18.8623L94.052 24.7006Z" fill="#CF4518"/>
</svg>
