<svg xmlns="http://www.w3.org/2000/svg" width="84" height="85" viewBox="0 0 84 85">
  <g id="Group_74" data-name="Group 74" transform="translate(-946 -509)">
    <path id="Path_284" data-name="Path 284" d="M1019.453,576.887H972.66a10.559,10.559,0,0,1-10.548-10.547V519.547A10.559,10.559,0,0,1,972.66,509h46.793A10.558,10.558,0,0,1,1030,519.547V566.34A10.558,10.558,0,0,1,1019.453,576.887ZM972.66,513a6.555,6.555,0,0,0-6.548,6.547V566.34a6.555,6.555,0,0,0,6.548,6.547h46.793A6.554,6.554,0,0,0,1026,566.34V519.547a6.554,6.554,0,0,0-6.547-6.547Z" fill="#fff"/>
    <path id="Path_285" data-name="Path 285" d="M979.123,594H952.807A6.814,6.814,0,0,1,946,587.193V560.877a6.815,6.815,0,0,1,6.807-6.807h4.555a2,2,0,0,1,0,4h-4.555A2.811,2.811,0,0,0,950,560.877v26.316A2.81,2.81,0,0,0,952.807,590h26.316a2.81,2.81,0,0,0,2.807-2.807V582.4a2,2,0,0,1,4,0v4.791A6.815,6.815,0,0,1,979.123,594Z" fill="#fff"/>
    <path id="Path_286" data-name="Path 286" d="M954.852,541.739a1.5,1.5,0,0,1-1.5-1.5V518.986a1.5,1.5,0,0,1,3,0v21.253A1.5,1.5,0,0,1,954.852,541.739Z" fill="#fff"/>
    <path id="Path_287" data-name="Path 287" d="M1021.014,584.578H1001.9a1.5,1.5,0,0,1,0-3h19.113a1.5,1.5,0,0,1,0,3Z" fill="#fff"/>
    <circle id="Ellipse_19" data-name="Ellipse 19" cx="2" cy="2" r="2" transform="translate(994 581.077)" fill="#fff"/>
    <circle id="Ellipse_20" data-name="Ellipse 20" cx="2" cy="2" r="2" transform="translate(1022.991 587.039)" fill="#fff"/>
    <path id="Path_288" data-name="Path 288" d="M1008.014,590.578H998.9a1.5,1.5,0,0,1,0-3h9.113a1.5,1.5,0,0,1,0,3Z" fill="#fff"/>
    <path id="Path_289" data-name="Path 289" d="M1019.014,590.578H1013.9a1.5,1.5,0,0,1,0-3h5.113a1.5,1.5,0,0,1,0,3Z" fill="#fff"/>
    <circle id="Ellipse_21" data-name="Ellipse 21" cx="2" cy="2" r="2" transform="translate(953 583)" fill="#fff"/>
    <circle id="Ellipse_22" data-name="Ellipse 22" cx="2" cy="2" r="2" transform="translate(952.852 544)" fill="#fff"/>
    <path id="Path_290" data-name="Path 290" d="M948.852,532.848a1.5,1.5,0,0,1-1.5-1.5v-7.1a1.5,1.5,0,0,1,3,0v7.1A1.5,1.5,0,0,1,948.852,532.848Z" fill="#fff"/>
    <path id="Path_291" data-name="Path 291" d="M948.852,520.029a1.5,1.5,0,0,1-1.5-1.5v-3.095a1.5,1.5,0,0,1,3,0v3.095A1.5,1.5,0,0,1,948.852,520.029Z" fill="#fff"/>
    <path id="Path_292" data-name="Path 292" d="M948.852,542.368a1.5,1.5,0,0,1-1.5-1.5v-3.095a1.5,1.5,0,0,1,3,0v3.095A1.5,1.5,0,0,1,948.852,542.368Z" fill="#fff"/>
    <g id="Group_73" data-name="Group 73">
      <path id="Path_293" data-name="Path 293" d="M987.365,562.564a2,2,0,0,1-1.414-3.414l20.655-20.655a2,2,0,0,1,2.829,0l6.863,6.862.353-22.971-22.8.527,6.277,6.277a2,2,0,0,1,0,2.829l-17.246,17.246a2,2,0,0,1-2.828-2.828L995.889,530.6l-8.17-8.168a2,2,0,0,1,1.368-3.414l29.55-.683a1.966,1.966,0,0,1,1.455.58,2.006,2.006,0,0,1,.591,1.451l-.458,29.774a2,2,0,0,1-3.414,1.383l-8.79-8.79-19.242,19.242A1.993,1.993,0,0,1,987.365,562.564Z" fill="#fff"/>
      <circle id="Ellipse_23" data-name="Ellipse 23" cx="2" cy="2" r="2" transform="translate(981.152 562.786)" fill="#fff"/>
      <path id="Path_294" data-name="Path 294" d="M971.187,560.135a2,2,0,0,1-1.415-3.414l6.207-6.208a2,2,0,0,1,2.829,2.828l-6.207,6.208A2,2,0,0,1,971.187,560.135Z" fill="#fff"/>
    </g>
  </g>
</svg>
