<svg id="statistics" xmlns="http://www.w3.org/2000/svg" width="85" height="85" viewBox="0 0 85 85">
  <path id="Path_238" data-name="Path 238" d="M110.654,287.058a5.476,5.476,0,0,1-7.59,7.59l-1.514,2.287a8.219,8.219,0,0,0,11.39-11.392Zm0,0" transform="translate(-84.148 -236.609)" fill="#fff"/>
  <path id="Path_239" data-name="Path 239" d="M88.226,266.742a5.45,5.45,0,0,1,3.018.911l1.515-2.285a8.218,8.218,0,0,0-11.39,11.391l2.287-1.513a5.476,5.476,0,0,1,4.571-8.5Zm0,0" transform="translate(-66.29 -218.758)" fill="#fff"/>
  <path id="Path_240" data-name="Path 240" d="M288,336v8.226h5.484v-2.742h-2.742V336Zm0,0" transform="translate(-238.645 -278.419)" fill="#fff"/>
  <path id="Path_241" data-name="Path 241" d="M249.856,288a15.109,15.109,0,0,0-9.543,3.405l1.739,2.123a12.346,12.346,0,0,1,6.434-2.7v2.656h2.742v-2.661a12.355,12.355,0,0,1,10.886,10.886h-2.661v2.742h2.656a12.351,12.351,0,0,1-2.7,6.435l2.121,1.737A15.078,15.078,0,0,0,249.856,288Zm0,0" transform="translate(-199.13 -238.645)" fill="#fff"/>
  <path id="Path_242" data-name="Path 242" d="M224.452,342.108v-2.656h-2.742v2.661a12.355,12.355,0,0,1-10.886-10.886h2.661v-2.742h-2.656a12.348,12.348,0,0,1,2.7-6.435l-2.122-1.737a15.079,15.079,0,0,0,21.217,21.219l-1.739-2.123A12.341,12.341,0,0,1,224.452,342.108Zm0,0" transform="translate(-172.355 -265.42)" fill="#fff"/>
  <path id="Path_243" data-name="Path 243" d="M76.774,129.355H74.032V90.968H65.806v25.823a20.675,20.675,0,0,0-2.742-2.479V97.823H54.839v12.752a20.627,20.627,0,0,0-2.742-.345v-5.552H43.871v6.684a20.461,20.461,0,0,0-3.917,1.88,18.957,18.957,0,0,0-.947-2.229l2.168-3.036-7.457-7.459-3.037,2.169a19.1,19.1,0,0,0-2.857-1.179l-.613-3.684H16.661l-.613,3.684a19.1,19.1,0,0,0-2.857,1.179l-3.036-2.169L2.7,107.976l2.168,3.036a18.842,18.842,0,0,0-1.18,2.857L0,114.484v10.549l3.684.614a18.981,18.981,0,0,0,1.18,2.857L2.7,131.538,10.153,139l3.037-2.169a19.083,19.083,0,0,0,2.857,1.179l.613,3.685H27.21l.613-3.684a19.089,19.089,0,0,0,2.857-1.179l.548.392A20.542,20.542,0,0,0,71.221,132.1H85V80H76.774ZM68.548,93.71H71.29v35.645h-.07a20.406,20.406,0,0,0-2.672-8.844Zm-10.968,6.855h2.742v11.988a20.407,20.407,0,0,0-2.742-1.19Zm-10.968,6.855h2.742v2.812a20.507,20.507,0,0,0-2.742.346ZM30.1,134.027a16.312,16.312,0,0,1-3.847,1.589l-.849.23-.518,3.105h-5.9l-.518-3.105-.849-.23a16.335,16.335,0,0,1-3.847-1.589l-.764-.438-2.557,1.828-4.174-4.173L8.1,128.685l-.438-.764a16.289,16.289,0,0,1-1.589-3.846l-.229-.849-3.105-.517v-5.9l3.105-.517.23-.849A16.333,16.333,0,0,1,7.666,111.6l.438-.764-1.828-2.559,4.174-4.173,2.557,1.828.764-.438a16.309,16.309,0,0,1,3.847-1.589l.849-.23.518-3.105h5.9l.518,3.105.849.23a16.333,16.333,0,0,1,3.847,1.589l.764.438,2.557-1.828,4.174,4.173-1.828,2.559.438.764a16.308,16.308,0,0,1,1.405,3.306,20.8,20.8,0,0,0-2.23,2.182,13.763,13.763,0,1,0-5.218,13.606c0,.012,0,.025,0,.037a20.519,20.519,0,0,0,.262,3.116Zm2.769-13.462a20.46,20.46,0,0,0-2.253,5.876,10.953,10.953,0,1,1,2.287-6.684C32.9,120.031,32.888,120.3,32.869,120.565Zm17.857,27.983a17.823,17.823,0,1,1,17.823-17.823A17.843,17.843,0,0,1,50.726,148.548Zm28.79-65.806h2.742v46.613H79.516Zm0,0" transform="translate(0 -66.29)" fill="#fff"/>
  <path id="Path_244" data-name="Path 244" d="M76.774,0V2.742H79.72l-9.7,7.76L65.806,6.287l-6.464,6.464a4.047,4.047,0,0,0-1.762-.412,4.118,4.118,0,0,0-4.113,4.113,4.066,4.066,0,0,0,.514,1.949l-7.166,7.963a4.091,4.091,0,0,0-1.574-.315c-.026,0-.05.007-.076.008l-5.513-14.7A4.106,4.106,0,1,0,33,9.089L21.759,16a4.067,4.067,0,0,0-6.426,1.818H7.973a4.113,4.113,0,1,0,0,2.742h7.361a4.1,4.1,0,0,0,7.879-2.235l11.239-6.915a4.063,4.063,0,0,0,2.564.924c.026,0,.05-.007.076-.008l5.513,14.7a4.122,4.122,0,1,0,6.236,1.181l7.166-7.963a4.108,4.108,0,0,0,5.687-3.8,4.047,4.047,0,0,0-.412-1.762l4.525-4.525,4.011,4.011,12.44-9.952v4H85V0ZM4.113,20.565a1.371,1.371,0,1,1,1.371-1.371A1.373,1.373,0,0,1,4.113,20.565Zm15.081,0a1.371,1.371,0,1,1,1.371-1.371A1.373,1.373,0,0,1,19.194,20.565ZM35.645,8.226A1.371,1.371,0,1,1,37.016,9.6,1.373,1.373,0,0,1,35.645,8.226Zm9.6,23.306a1.371,1.371,0,1,1,1.371-1.371A1.373,1.373,0,0,1,45.242,31.532Zm12.339-13.71a1.371,1.371,0,1,1,1.371-1.371A1.373,1.373,0,0,1,57.581,17.823Zm0,0" fill="#fff"/>
</svg>
