<svg xmlns="http://www.w3.org/2000/svg" width="88.549" height="85" viewBox="0 0 88.549 85">
  <g id="XMLID_806_" transform="translate(0 -10.262)">
    <g id="XMLID_386_" transform="translate(0 10.262)">
      <path id="XMLID_389_" d="M88.379,56.852A34.907,34.907,0,0,0,61.234,26.243V21.848a5.88,5.88,0,0,0-1.419-11.586H47.362a5.88,5.88,0,0,0-1.419,11.586v4.407a34.727,34.727,0,0,0-17.032,9.369,35.1,35.1,0,0,0-2.937,3.333c-.043,0-.087-.007-.131-.007H13.519a1.73,1.73,0,1,0,0,3.459h10.1a34.671,34.671,0,0,0-3.069,6.648H1.73a1.73,1.73,0,0,0,0,3.459H19.575a35.165,35.165,0,0,0-.858,6.648H11.069a1.73,1.73,0,1,0,0,3.459h7.7a35.113,35.113,0,0,0,1.08,6.648H8.648a1.73,1.73,0,0,0,0,3.459H20.956A34.931,34.931,0,0,0,50.161,95.093q1.714.169,3.428.169a35.02,35.02,0,0,0,19.066-5.635,1.73,1.73,0,1,0-1.888-2.9,31.477,31.477,0,1,1,9.271-9.283,1.729,1.729,0,1,0,2.9,1.884A35.047,35.047,0,0,0,88.379,56.852ZM44.941,16.142a2.424,2.424,0,0,1,2.421-2.421H59.815a2.421,2.421,0,0,1,0,4.843H47.362A2.424,2.424,0,0,1,44.941,16.142ZM49.4,25.66V22.023h8.373v3.631A35.24,35.24,0,0,0,49.4,25.66Z" transform="translate(0 -10.262)" fill="#fff"/>
      <path id="XMLID_391_" d="M437.5,425.5a1.73,1.73,0,1,0,1.223.507A1.739,1.739,0,0,0,437.5,425.5Z" transform="translate(-360.403 -353.684)" fill="#fff"/>
      <path id="XMLID_394_" d="M181.7,144.609a26.83,26.83,0,1,0,26.83,26.83A26.86,26.86,0,0,0,181.7,144.609Zm0,50.2a23.371,23.371,0,1,1,23.371-23.371A23.4,23.4,0,0,1,181.7,194.809Z" transform="translate(-128.087 -121.374)" fill="#fff"/>
      <path id="XMLID_397_" d="M277.137,219.918l-8.566,8.566a5.361,5.361,0,0,0-4.748,0l-3.834-3.834a1.73,1.73,0,1,0-2.446,2.446l3.834,3.834a5.374,5.374,0,1,0,9.64,0l8.315-8.315h0l.251-.251a1.729,1.729,0,1,0-2.446-2.446Zm-10.94,15.3a1.915,1.915,0,1,1,1.915-1.915A1.917,1.917,0,0,1,266.2,235.219Z" transform="translate(-212.582 -183.239)" fill="#fff"/>
      <path id="XMLID_398_" d="M400.987,289.86h-1.6a1.73,1.73,0,1,0,0,3.459h1.6a1.73,1.73,0,0,0,0-3.459Z" transform="translate(-328.88 -241.503)" fill="#fff"/>
      <path id="XMLID_399_" d="M196.414,289.616h-1.6a1.73,1.73,0,1,0,0,3.459h1.6a1.73,1.73,0,1,0,0-3.459Z" transform="translate(-159.688 -241.302)" fill="#fff"/>
      <path id="XMLID_400_" d="M301.852,187.88a1.73,1.73,0,0,0,1.73-1.73v-1.6a1.73,1.73,0,1,0-3.459,0v1.6A1.73,1.73,0,0,0,301.852,187.88Z" transform="translate(-248.217 -152.975)" fill="#fff"/>
      <path id="XMLID_424_" d="M301.609,387.393a1.73,1.73,0,0,0-1.73,1.73v1.6a1.73,1.73,0,0,0,3.459,0v-1.6A1.73,1.73,0,0,0,301.609,387.393Z" transform="translate(-248.015 -322.168)" fill="#fff"/>
      <path id="XMLID_425_" d="M1.73,351.44a1.73,1.73,0,1,0,1.223,2.952A1.73,1.73,0,0,0,1.73,351.44Z" transform="translate(0 -292.433)" fill="#fff"/>
    </g>
  </g>
</svg>
