<svg width="100" height="100" viewBox="0 0 100 100" fill="none" xmlns="http://www.w3.org/2000/svg">
<path d="M26.0432 46.9389V39.0367C27.7975 40.3537 29.0505 41.6708 29.0505 43.5522C29.3012 44.8693 28.5494 46.3745 26.0432 46.9389ZM19.7778 27.3715C19.7778 26.0545 20.279 24.5493 22.5345 23.9848V31.6989C21.0308 30.57 19.7778 29.0648 19.7778 27.3715ZM35.3159 43.1759C35.3159 38.8485 31.0555 36.5907 27.0456 34.333C26.795 34.1448 26.5444 33.9567 26.2937 33.9567V23.7967C29.0505 24.173 29.5518 25.8663 29.5518 27.3715V27.9359H35.3159V27.7478C35.3159 22.6678 30.8048 21.1626 26.2937 20.9744V17.9641H22.5345V20.9744C18.0234 21.3507 13.5124 22.8559 13.5124 27.7478C13.5124 32.0752 17.7728 34.333 21.7827 36.5908L22.2839 36.967V47.1271C19.5272 46.7508 18.7753 45.0574 18.7753 43.7404V42.2352H13.0111V43.3641C13.0111 48.2559 17.5222 49.9493 22.2839 50.1374V52.3952H26.0432V50.1374C30.8049 49.7611 35.3159 48.2559 35.3159 43.1759Z" fill="#005B6B"/>
<path d="M97.0261 100V37.2754H81.2268V100H97.0261Z" fill="#FFBB00"/>
<path d="M76.7658 100V57.9341H60.9666V100H76.7658Z" fill="#FFBB00"/>
<path d="M56.5056 100V70.2096H40.7063V100H56.5056Z" fill="#FFBB00"/>
<path d="M36.2453 100V80.5389H20.446V100H36.2453Z" fill="#FFBB00"/>
<path d="M86.6171 16.7665C68.2156 47.006 38.29 68.1138 0 77.994V82.7844C40.5205 72.6048 72.3048 50.5988 91.6357 18.8623L86.6171 16.7665Z" fill="#CF4518"/>
<path d="M94.052 24.7006L100 0L79.368 18.8623L94.052 24.7006Z" fill="#CF4518"/>
</svg>
